<svg xmlns="http://www.w3.org/2000/svg" viewBox="0 0 317.69 60.37"><defs><style>.cls-1{fill:#f76900;}.cls-2{fill:#000e54;}</style></defs><title>Asset 1</title><g id="Layer_2" data-name="Layer 2"><g id="Artwork"><path class="cls-1" d="M60.11,26.07l-1.32-6.18,1.67-.61c1,2.28,3.06,5.16,6.76,5.16,2.31,0,4.65-1.28,4.65-4.27,0-5.68-12.05-4.47-12.05-11.69,0-4.26,3.27-6.39,7-6.39a5.72,5.72,0,0,1,4.41,1.67l.42-1.14h1.42L74.54,8.2l-1.68.6c-1-2.16-3-4.54-6-4.54C64.23,4.26,63,5.78,63,7.7c0,5.15,12,3.84,12,11.66,0,5.26-4.48,7.24-8,7.24A8.87,8.87,0,0,1,61.92,25l-.43,1.1Z"/><path class="cls-1" d="M81.18,33.89A1.6,1.6,0,0,1,78.84,33l3.58-7-5.4-12c-.42-1-.64-1.21-2.09-1.56V11.15h6.5V12.5l-1.74.42,4.08,9.14,4-9.17-1.67-.39V11.15h5.44V12.5a2.58,2.58,0,0,0-2,1.53l-5.65,12.4Z"/><path class="cls-1" d="M101.86,14.56a1.52,1.52,0,0,0-1.42-1.07,4.46,4.46,0,0,0-3,1.89V24.3l1.78.42v1.35h-6V24.72l1.42-.35V14.17l-1.77-.5V12.43a4.35,4.35,0,0,0,3.37-2l1.24.22-.17,3.19c.81-1.42,2.16-3.19,4.3-3.19a2,2,0,0,1,2.13,2,1.9,1.9,0,0,1-1.85,2"/><path class="cls-1" d="M113,22.2V19.61l-3.48.67c-.92.18-2.38.71-2.38,2.31a2.16,2.16,0,0,0,2.42,2.13A3.63,3.63,0,0,0,113,22.2m4.76,2.06.36.67a3.34,3.34,0,0,1-2.74,1.57,2,2,0,0,1-2.31-1.85,5,5,0,0,1-4.33,2c-3,0-4.34-2-4.34-3.56,0-2.49,1.57-3.87,4.34-4.37L113,17.9V14.7a2.16,2.16,0,0,0-2.27-2.24,3.11,3.11,0,0,0-2.59,1.21c.46,2.17-1.5,3.27-3.31,2.28.07-3.24,3.23-5.33,6.22-5.33,3.48,0,4.8,2,4.8,4.65v8.28a.9.9,0,0,0,.88,1,1.84,1.84,0,0,0,1-.28"/><path class="cls-1" d="M131.82,13.46a1.94,1.94,0,0,1-2,1.74,3.36,3.36,0,0,0-3.41-2.38c-2.67,0-4.76,2.24-4.76,6,0,3.16,2,5.22,4.76,5.22A5.63,5.63,0,0,0,131,21.81l.75.46c-.53,2.31-2.67,4.33-6.43,4.33-3.52,0-6.65-2.45-6.65-7a8.78,8.78,0,0,1,8.71-9c2.13,0,4.48.88,4.48,2.84"/><path class="cls-1" d="M134.91,12.92l-1.78-.42V11.15h4.62V21.7c0,1.53.75,2.35,2.13,2.35a7.74,7.74,0,0,0,4.8-2.06V12.92l-1.78-.42V11.15h4.62V23.48h1.78v1.35a8.62,8.62,0,0,0-3.38,1.56l-1.24-.21.18-2.56c-1.78,1.71-3.81,3-6,3a3.67,3.67,0,0,1-3.94-3.51Z"/><path class="cls-1" d="M152.32,26.07h-.89l-.71-4.33,1.07-.25a5.6,5.6,0,0,0,4.79,3.41,2.45,2.45,0,0,0,2.74-2.27c0-3.31-8.07-2.74-8.07-7.75a4.43,4.43,0,0,1,4.62-4.26,5.63,5.63,0,0,1,3.34,1l.14-.46h1.11l.67,3.8-1.07.25a4.41,4.41,0,0,0-3.87-2.88c-1.56,0-2.24,1-2.24,1.81,0,3,8,2.28,8,7.54a5.12,5.12,0,0,1-5.4,4.93A5.64,5.64,0,0,1,152.67,25Z"/><path class="cls-1" d="M166.75,17.33l6.92-.92c0-2.81-1.42-4-2.91-4-2.66,0-3.91,2.24-4,4.9m-.08,1.85c.15,2.73,2,4.9,4.45,4.9a5.41,5.41,0,0,0,4.76-2.59l.74.46c-.6,2.74-2.91,4.65-6.36,4.65s-6.53-2.52-6.53-7.1c0-6.22,3.73-8.88,7.17-8.88,3.24,0,5.94,1.91,5.94,6.46l-.57.86Z"/><path class="cls-1" d="M205,17.58c0,5.83-3.41,9.2-9.34,9.2s-9.35-3.37-9.35-9.2v-13l-1.84-.39V2.62h7V4.18l-1.85.39V17.12c0,4.51,1.89,7.25,6.65,7.25,3.8,0,6.29-2.6,6.29-7V4.57l-1.85-.39V2.62h6.11V4.18L205,4.57Z"/><path class="cls-1" d="M207.61,26.07V24.72l1.42-.35V14.17l-1.78-.5V12.43a4.35,4.35,0,0,0,3.38-2l1.24.22-.17,3c1.77-1.71,3.8-3,6-3a3.67,3.67,0,0,1,3.94,3.51V24.3l1.78.42v1.35h-6V24.72l1.42-.35V15.52c0-1.53-.74-2.35-2.13-2.35a7.76,7.76,0,0,0-4.8,2.06V24.3l1.78.42v1.35Z"/><path class="cls-1" d="M228.57,4.43a1.78,1.78,0,1,1-1.77,1.78,1.76,1.76,0,0,1,1.77-1.78m-3.19,21.64V24.72l1.6-.39V14.17l-1.78-.5V12.43a4.35,4.35,0,0,0,3.37-2l1.25.22V24.33l1.6.39v1.35Z"/><path class="cls-1" d="M231.81,11.15h6.5V12.5l-1.74.42,4.09,9.14,4-9.17L243,12.5V11.15h5.44V12.5a2.58,2.58,0,0,0-2,1.53l-5.65,12.4h-1.28L233.9,14.06c-.46-1-.64-1.21-2.09-1.56Z"/><path class="cls-1" d="M251.32,17.33l6.92-.92c0-2.81-1.42-4-2.91-4-2.66,0-3.91,2.24-4,4.9m-.08,1.85c.15,2.73,2,4.9,4.45,4.9a5.41,5.41,0,0,0,4.76-2.59l.74.46c-.6,2.74-2.91,4.65-6.36,4.65s-6.53-2.52-6.53-7.1c0-6.22,3.73-8.88,7.17-8.88,3.24,0,5.94,1.91,5.94,6.46l-.57.86Z"/><path class="cls-1" d="M271.82,14.56a1.52,1.52,0,0,0-1.42-1.07,4.46,4.46,0,0,0-3,1.89V24.3l1.78.42v1.35h-6V24.72l1.42-.35V14.17l-1.78-.5V12.43a4.37,4.37,0,0,0,3.38-2l1.24.22-.18,3.19c.82-1.42,2.17-3.19,4.3-3.19a2,2,0,0,1,2.14,2,1.9,1.9,0,0,1-1.85,2"/><path class="cls-1" d="M275.94,26.07h-.89l-.71-4.33,1.07-.25a5.6,5.6,0,0,0,4.79,3.41,2.45,2.45,0,0,0,2.74-2.27c0-3.31-8.07-2.74-8.07-7.75a4.43,4.43,0,0,1,4.62-4.26,5.61,5.61,0,0,1,3.34,1l.15-.46h1.1l.67,3.8-1.06.25a4.43,4.43,0,0,0-3.88-2.88c-1.56,0-2.24,1-2.24,1.81,0,3,8,2.28,8,7.54a5.12,5.12,0,0,1-5.4,4.93A5.6,5.6,0,0,1,276.3,25Z"/><path class="cls-1" d="M290.54,4.43a1.78,1.78,0,1,1-1.77,1.78,1.76,1.76,0,0,1,1.77-1.78m-3.19,21.64V24.72l1.6-.39V14.17l-1.78-.5V12.43a4.35,4.35,0,0,0,3.37-2l1.25.22V24.33l1.6.39v1.35Z"/><path class="cls-1" d="M296.41,23.44V12.92H294.1V11.57c1.95-.35,3.23-2.13,3.91-4.05l1.24.22v3.41h3.91v1.77h-3.91v9.92c0,1.1.5,1.7,1.42,1.7a2.29,2.29,0,0,0,1.67-.85l.75.57a3.64,3.64,0,0,1-3.38,2.34,3,3,0,0,1-3.3-3.16"/><path class="cls-1" d="M307.32,33.89A1.61,1.61,0,0,1,305,33l3.59-7-5.4-12a2.15,2.15,0,0,0-2.27-1.14h-3V11.15h9.71V12.5l-1.75.42,4.09,9.14,4-9.17-1.67-.39V11.15h5.43V12.5a2.57,2.57,0,0,0-2,1.53L310,26.43Z"/><path class="cls-2" d="M63.31,56.64H67.2c2.26,0,3.53-.08,5.33-2.66l1.13.49L72.18,58.3H59.07V57l1.51-.32v-16l-1.51-.32V39.15h6v1.28l-1.8.32Z"/><path class="cls-2" d="M74.46,58.3V57.2l1.3-.32v-8.3l-1.45-.41v-1a3.56,3.56,0,0,0,2.76-1.65l1,.17v11.2l1.31.32v1.1Zm2.61-17.67a1.45,1.45,0,1,1-1.45,1.45A1.44,1.44,0,0,1,77.07,40.63Z"/><path class="cls-2" d="M83.64,47.59a5.7,5.7,0,0,1,4.21-1.91c2.87,0,5.27,2.06,5.27,5.8,0,5.11-3.68,7.25-6.55,7.25a6.12,6.12,0,0,1-3.77-1.16l-.47.81-1-.17V41.91l-1.45-.41v-1a3.51,3.51,0,0,0,2.75-1.66l1,.18Zm0,1.66v7.13a4.84,4.84,0,0,0,2.64.73c2.06,0,4.41-1.36,4.41-5,0-2.58-1.51-4.32-3.74-4.32A4.66,4.66,0,0,0,83.64,49.25Z"/><path class="cls-2" d="M101.61,48.9a1.23,1.23,0,0,0-1.16-.87A3.62,3.62,0,0,0,98,49.57v7.28l1.45.35v1.1H94.53V57.2l1.16-.29V48.58l-1.45-.41v-1A3.56,3.56,0,0,0,97,45.51l1,.17-.14,2.61c.66-1.16,1.77-2.61,3.51-2.61a1.62,1.62,0,0,1,1.74,1.6A1.55,1.55,0,0,1,101.61,48.9Z"/><path class="cls-2" d="M114.55,56.82l.29.55a2.73,2.73,0,0,1-2.23,1.28c-1.28,0-1.86-.76-1.89-1.51a4.11,4.11,0,0,1-3.54,1.59c-2.43,0-3.54-1.59-3.54-2.9,0-2,1.28-3.16,3.54-3.57l3.48-.63V49a1.75,1.75,0,0,0-1.85-1.83,2.55,2.55,0,0,0-2.12,1c.38,1.77-1.22,2.67-2.7,1.86.06-2.64,2.64-4.35,5.08-4.35,2.84,0,3.91,1.65,3.91,3.8v6.76a.74.74,0,0,0,.73.81A1.54,1.54,0,0,0,114.55,56.82Zm-3.89-1.68V53l-2.84.55c-.75.14-1.94.58-1.94,1.89a1.76,1.76,0,0,0,2,1.74A3,3,0,0,0,110.66,55.14Z"/><path class="cls-2" d="M123.09,48.9a1.23,1.23,0,0,0-1.16-.87,3.62,3.62,0,0,0-2.44,1.54v7.28l1.45.35v1.1H116V57.2l1.16-.29V48.58l-1.45-.41v-1a3.53,3.53,0,0,0,2.75-1.65l1,.17-.15,2.61c.67-1.16,1.77-2.61,3.51-2.61a1.62,1.62,0,0,1,1.74,1.6A1.54,1.54,0,0,1,123.09,48.9Z"/><path class="cls-2" d="M125.68,58.3V57.2l1.31-.32v-8.3l-1.45-.41v-1a3.54,3.54,0,0,0,2.75-1.65l1,.17v11.2l1.3.32v1.1Zm2.61-17.67a1.45,1.45,0,1,1-1.45,1.45A1.44,1.44,0,0,1,128.29,40.63Z"/><path class="cls-2" d="M134.11,52.67c.12,2.23,1.6,4,3.63,4a4.4,4.4,0,0,0,3.88-2.11l.61.37c-.49,2.24-2.38,3.8-5.19,3.8s-5.34-2.06-5.34-5.8c0-5.07,3.05-7.25,5.86-7.25,2.64,0,4.85,1.57,4.85,5.28l-.47.7Zm.06-1.51,5.65-.75c0-2.29-1.16-3.25-2.37-3.25C135.27,47.16,134.26,49,134.17,51.16Z"/><path class="cls-2" d="M144.93,58.3h-.72l-.58-3.54.87-.2a4.57,4.57,0,0,0,3.92,2.78,2,2,0,0,0,2.23-1.86c0-2.69-6.59-2.23-6.59-6.32a3.63,3.63,0,0,1,3.78-3.48,4.64,4.64,0,0,1,2.72.81l.12-.38h.9l.55,3.11-.87.2a3.61,3.61,0,0,0-3.16-2.35c-1.28,0-1.83.79-1.83,1.48,0,2.47,6.53,1.86,6.53,6.15a4.18,4.18,0,0,1-4.41,4,4.6,4.6,0,0,1-3.17-1.33Z"/><path class="cls-1" d="M28.91,19.12H43.85V8.23C43.61,8,35.51.22,35.27,0H8.3L0,8.23v20l8,8.06H28.91V47.85H15.07v-6.6H0V52.14l8.3,8.23h27c.24-.22,8.34-8,8.58-8.23v-20l-8-8.07H15.07V12.52H28.91Z"/></g></g></svg>